<?xml version="1.0" standalone="no"?>
<!DOCTYPE svg PUBLIC "-//W3C//DTD SVG 20010904//EN"
 "http://www.w3.org/TR/2001/REC-SVG-20010904/DTD/svg10.dtd">
<svg version="1.0" xmlns="http://www.w3.org/2000/svg"
 width="1024.000000pt" height="1024.000000pt" viewBox="0 0 1024.000000 1024.000000"
 preserveAspectRatio="xMidYMid meet">

<g transform="translate(0.000000,1024.000000) scale(0.100000,-0.100000)"
fill="#000000" stroke="none">
<path d="M5655 7756 c-27 -13 -61 -35 -73 -49 -17 -17 -46 -31 -95 -42 -213
-51 -343 -178 -378 -369 -16 -84 -2 -196 46 -371 129 -471 361 -869 633 -1086
95 -76 176 -121 292 -160 84 -29 108 -32 210 -33 138 -1 206 15 335 78 110 54
195 118 297 222 94 97 124 134 200 249 146 220 296 585 352 857 64 310 -62
528 -351 606 -41 11 -85 31 -104 46 -113 95 -229 97 -319 7 -72 -73 -87 -149
-46 -236 28 -61 56 -87 120 -116 64 -28 128 -21 204 22 52 29 57 30 99 19 56
-16 128 -80 144 -127 37 -114 -64 -460 -228 -773 -92 -175 -172 -290 -283
-401 -78 -79 -110 -103 -180 -138 -98 -48 -211 -75 -279 -66 -272 37 -504 275
-706 725 -31 69 -75 177 -96 240 -109 314 -106 456 12 515 63 32 105 31 165
-2 39 -22 62 -28 109 -27 128 0 219 90 218 215 -1 92 -45 158 -133 198 -59 27
-104 26 -165 -3z"/>
<path d="M2588 6344 c-2 -5 -6 -141 -7 -301 l-3 -293 196 0 196 0 0 65 0 65
-120 0 -120 0 0 230 0 230 -32 0 c-18 0 -49 3 -69 6 -20 4 -38 2 -41 -2z"/>
<path d="M3243 6332 c-70 -25 -124 -64 -160 -115 -42 -59 -53 -98 -53 -187 0
-127 50 -202 170 -259 81 -38 192 -37 272 2 116 57 175 163 166 296 -6 79 -33
136 -89 191 -83 81 -203 109 -306 72z m171 -135 c80 -45 110 -160 63 -242 -33
-59 -78 -85 -147 -85 -108 0 -164 64 -158 181 3 54 9 73 32 104 51 66 137 84
210 42z"/>
<path d="M3855 6341 c-43 -11 -66 -25 -100 -61 -28 -29 -30 -36 -30 -110 0
-70 3 -81 25 -105 35 -38 67 -52 161 -74 105 -25 131 -55 93 -109 -12 -18 -25
-22 -70 -22 -56 0 -94 22 -94 55 0 12 -15 15 -71 15 l-72 0 6 -39 c12 -93 104
-150 243 -151 115 0 193 54 213 150 26 120 -27 183 -185 221 -109 26 -124 33
-124 63 0 35 30 56 83 56 37 0 49 -5 65 -25 17 -22 28 -25 81 -25 57 0 61 1
61 24 0 38 -41 89 -92 114 -51 26 -143 36 -193 23z"/>
<path d="M2775 5543 c-101 -21 -179 -66 -262 -150 l-73 -73 0 90 0 90 -205 0
-205 0 -1 -667 c-1 -368 -2 -694 -3 -726 l-1 -58 205 0 205 -1 6 384 c5 318 9
393 23 443 33 116 91 185 196 234 48 22 71 26 178 29 l122 4 0 209 0 209 -57
-1 c-32 0 -89 -7 -128 -16z"/>
<path d="M3566 5544 c-152 -34 -283 -109 -386 -222 -72 -78 -118 -156 -157
-267 -27 -77 -28 -87 -28 -275 1 -183 2 -200 26 -272 42 -123 93 -204 188
-298 68 -68 104 -94 171 -127 118 -58 184 -74 335 -80 146 -6 238 8 346 52
156 63 294 191 373 345 l47 90 -207 0 -206 0 -45 -50 c-28 -31 -69 -61 -111
-82 -61 -30 -75 -33 -157 -33 -75 0 -99 5 -145 26 -107 50 -167 124 -201 245
l-18 64 539 0 539 0 7 56 c3 31 4 95 0 143 -27 340 -222 594 -522 677 -85 23
-300 28 -388 8z m331 -332 c84 -44 151 -136 168 -234 l7 -38 -331 0 c-273 0
-331 2 -331 14 0 7 16 45 35 84 42 84 112 152 188 182 71 28 202 24 264 -8z"/>
<path d="M5025 5543 c-221 -47 -382 -200 -403 -383 -17 -150 19 -272 105 -357
88 -88 187 -127 482 -188 68 -15 141 -33 163 -42 117 -47 117 -183 0 -235 -35
-16 -67 -21 -127 -21 -128 1 -214 43 -252 123 l-19 42 -197 5 c-151 4 -197 3
-197 -7 0 -29 34 -138 57 -184 38 -77 88 -133 162 -182 120 -79 258 -114 455
-114 273 0 477 102 566 283 105 213 30 470 -168 575 -79 42 -131 58 -328 102
-238 53 -284 80 -284 165 0 51 22 82 74 106 48 22 148 25 210 7 46 -14 112
-75 122 -113 7 -30 1 -29 217 -13 179 13 170 6 138 107 -53 170 -188 286 -379
326 -94 19 -303 19 -397 -2z"/>
<path d="M7125 5550 c-154 -31 -296 -128 -369 -253 -83 -142 -61 -364 48 -485
78 -86 185 -134 405 -183 224 -49 276 -71 306 -129 20 -39 19 -69 -5 -107 -37
-62 -131 -88 -253 -72 -103 14 -171 56 -208 131 l-14 28 -190 2 -190 3 3 -25
c7 -48 50 -161 82 -210 102 -159 273 -238 532 -247 167 -6 251 10 370 69 267
134 359 445 198 670 -75 105 -176 154 -440 213 -250 55 -300 84 -300 171 0 89
71 130 213 122 107 -6 150 -37 204 -146 1 -2 81 2 178 9 l177 12 -6 41 c-11
65 -63 162 -123 226 -67 73 -179 132 -295 155 -81 16 -255 18 -323 5z"/>
<path d="M6080 4878 c0 -701 0 -693 -75 -1003 -62 -256 -78 -365 -72 -500 5
-127 21 -179 75 -250 51 -67 130 -120 226 -151 66 -21 104 -27 200 -29 l119
-2 36 -74 c47 -97 140 -192 236 -241 229 -117 484 -70 656 120 154 170 184
412 76 617 -41 78 -146 182 -223 223 -296 155 -665 12 -771 -298 l-22 -65
-108 0 c-91 0 -114 3 -143 21 -117 69 -107 194 44 548 155 362 148 316 153
1074 l4 632 -205 0 -206 0 0 -622z m1071 -1524 c67 -20 148 -97 167 -160 41
-138 -18 -269 -147 -327 -35 -15 -59 -18 -112 -15 -82 6 -143 38 -188 100
-104 141 -37 351 129 403 60 18 86 18 151 -1z"/>
</g>
</svg>
